<svg id="visual" viewBox="0 0 900 600" width="900" height="600" xmlns="http://www.w3.org/2000/svg" xmlns:xlink="http://www.w3.org/1999/xlink" version="1.1"><g stroke-width="3" stroke-linejoin="bevel"><path d="M385 310.1L305 392.6L399 343.9Z" fill="#9436be" stroke="#001122"></path><path d="M385 310.1L279 273.1L305 392.6Z" fill="#813bc6" stroke="#001122"></path><path d="M279 273.1L256 395.9L305 392.6Z" fill="#3946d5" stroke="#001122"></path><path d="M313 501.3L443 384.9L305 392.6Z" fill="#9436be" stroke="#001122"></path><path d="M305 392.6L443 384.9L399 343.9Z" fill="#773dc9" stroke="#001122"></path><path d="M399 343.9L432 218.1L385 310.1Z" fill="#9c34bb" stroke="#001122"></path><path d="M432 218.1L319 214.4L385 310.1Z" fill="#a332b7" stroke="#001122"></path><path d="M385 310.1L319 214.4L279 273.1Z" fill="#3946d5" stroke="#001122"></path><path d="M229 437.6L240 438.6L256 395.9Z" fill="#9436be" stroke="#001122"></path><path d="M256 395.9L240 438.6L305 392.6Z" fill="#1348d8" stroke="#001122"></path><path d="M149 388.9L229 437.6L256 395.9Z" fill="#6b3fcc" stroke="#001122"></path><path d="M218 512.3L313 501.3L240 438.6Z" fill="#9c34bb" stroke="#001122"></path><path d="M240 438.6L313 501.3L305 392.6Z" fill="#8b38c2" stroke="#001122"></path><path d="M443 384.9L432 218.1L399 343.9Z" fill="#6b3fcc" stroke="#001122"></path><path d="M480 484.6L501 418.6L443 384.9Z" fill="#4e44d3" stroke="#001122"></path><path d="M536 196.1L494 184.4L432 218.1Z" fill="#3946d5" stroke="#001122"></path><path d="M313 501.3L480 484.6L443 384.9Z" fill="#813bc6" stroke="#001122"></path><path d="M153 253.1L149 388.9L279 273.1Z" fill="#8b38c2" stroke="#001122"></path><path d="M279 273.1L149 388.9L256 395.9Z" fill="#773dc9" stroke="#001122"></path><path d="M229 437.6L218 512.3L240 438.6Z" fill="#8b38c2" stroke="#001122"></path><path d="M480 600L488 486.3L480 484.6Z" fill="#3946d5" stroke="#001122"></path><path d="M480 484.6L488 486.3L501 418.6Z" fill="#5e42cf" stroke="#001122"></path><path d="M149 388.9L167 456.3L229 437.6Z" fill="#813bc6" stroke="#001122"></path><path d="M167 456.3L218 512.3L229 437.6Z" fill="#9c34bb" stroke="#001122"></path><path d="M313 501.3L399 572.3L480 484.6Z" fill="#773dc9" stroke="#001122"></path><path d="M140 204.4L153 253.1L279 273.1Z" fill="#1348d8" stroke="#001122"></path><path d="M536 196.1L432 218.1L443 384.9Z" fill="#6b3fcc" stroke="#001122"></path><path d="M432 218.1L349 120.4L319 214.4Z" fill="#3946d5" stroke="#001122"></path><path d="M149 388.9L145 461.6L167 456.3Z" fill="#8b38c2" stroke="#001122"></path><path d="M167 456.3L145 461.6L218 512.3Z" fill="#a332b7" stroke="#001122"></path><path d="M0 396.9L145 461.6L149 388.9Z" fill="#6b3fcc" stroke="#001122"></path><path d="M481 136.7L349 120.4L432 218.1Z" fill="#4e44d3" stroke="#001122"></path><path d="M319 214.4L140 204.4L279 273.1Z" fill="#6b3fcc" stroke="#001122"></path><path d="M359 600L399 572.3L313 501.3Z" fill="#1348d8" stroke="#001122"></path><path d="M597 350.9L536 196.1L443 384.9Z" fill="#4e44d3" stroke="#001122"></path><path d="M494 184.4L481 136.7L432 218.1Z" fill="#1348d8" stroke="#001122"></path><path d="M136 89.7L140 204.4L223 37.7Z" fill="#9436be" stroke="#001122"></path><path d="M153 253.1L51 287.9L149 388.9Z" fill="#813bc6" stroke="#001122"></path><path d="M595 483.3L590 372.9L501 418.6Z" fill="#813bc6" stroke="#001122"></path><path d="M501 418.6L597 350.9L443 384.9Z" fill="#6b3fcc" stroke="#001122"></path><path d="M279 600L359 600L313 501.3Z" fill="#4e44d3" stroke="#001122"></path><path d="M536 196.1L481 136.7L494 184.4Z" fill="#5e42cf" stroke="#001122"></path><path d="M590 372.9L597 350.9L501 418.6Z" fill="#813bc6" stroke="#001122"></path><path d="M595 483.3L596 371.6L590 372.9Z" fill="#a332b7" stroke="#001122"></path><path d="M590 372.9L596 371.6L597 350.9Z" fill="#813bc6" stroke="#001122"></path><path d="M218 512.3L279 600L313 501.3Z" fill="#9c34bb" stroke="#001122"></path><path d="M212 600L279 600L218 512.3Z" fill="#a332b7" stroke="#001122"></path><path d="M399 572.3L449 600L480 484.6Z" fill="#813bc6" stroke="#001122"></path><path d="M488 486.3L595 483.3L501 418.6Z" fill="#8b38c2" stroke="#001122"></path><path d="M359 600L449 600L399 572.3Z" fill="#a332b7" stroke="#001122"></path><path d="M136 600L212 600L218 512.3Z" fill="#5e42cf" stroke="#001122"></path><path d="M480 600L595 483.3L488 486.3Z" fill="#813bc6" stroke="#001122"></path><path d="M596 371.6L683 304.1L597 350.9Z" fill="#9c34bb" stroke="#001122"></path><path d="M449 600L480 600L480 484.6Z" fill="#3946d5" stroke="#001122"></path><path d="M51 246.1L51 287.9L153 253.1Z" fill="#6b3fcc" stroke="#001122"></path><path d="M145 461.6L112 554.3L218 512.3Z" fill="#6b3fcc" stroke="#001122"></path><path d="M481 136.7L382 44.7L349 120.4Z" fill="#5e42cf" stroke="#001122"></path><path d="M223 37.7L140 204.4L319 214.4Z" fill="#4e44d3" stroke="#001122"></path><path d="M140 204.4L51 246.1L153 253.1Z" fill="#a332b7" stroke="#001122"></path><path d="M49 203.4L51 246.1L140 204.4Z" fill="#3946d5" stroke="#001122"></path><path d="M0 477.6L112 554.3L145 461.6Z" fill="#3946d5" stroke="#001122"></path><path d="M536 196.1L575 135.4L481 136.7Z" fill="#a332b7" stroke="#001122"></path><path d="M507 0L389 0L382 44.7Z" fill="#8b38c2" stroke="#001122"></path><path d="M682 218.4L575 135.4L536 196.1Z" fill="#1348d8" stroke="#001122"></path><path d="M112 554.3L136 600L218 512.3Z" fill="#a332b7" stroke="#001122"></path><path d="M0 232.1L0 396.9L51 287.9Z" fill="#3946d5" stroke="#001122"></path><path d="M37 141.7L49 203.4L140 204.4Z" fill="#5e42cf" stroke="#001122"></path><path d="M693 151.4L581 121.7L575 135.4Z" fill="#773dc9" stroke="#001122"></path><path d="M575 135.4L581 121.7L481 136.7Z" fill="#a332b7" stroke="#001122"></path><path d="M223 37.7L319 214.4L349 120.4Z" fill="#6b3fcc" stroke="#001122"></path><path d="M261 0L223 37.7L349 120.4Z" fill="#1348d8" stroke="#001122"></path><path d="M709 416.6L683 304.1L596 371.6Z" fill="#a332b7" stroke="#001122"></path><path d="M597 350.9L682 218.4L536 196.1Z" fill="#8b38c2" stroke="#001122"></path><path d="M0 232.1L51 287.9L51 246.1Z" fill="#6b3fcc" stroke="#001122"></path><path d="M51 287.9L0 396.9L149 388.9Z" fill="#773dc9" stroke="#001122"></path><path d="M112 554.3L0 600L136 600Z" fill="#813bc6" stroke="#001122"></path><path d="M389 0L338 0L382 44.7Z" fill="#9436be" stroke="#001122"></path><path d="M382 44.7L338 0L349 120.4Z" fill="#9436be" stroke="#001122"></path><path d="M507 0L382 44.7L481 136.7Z" fill="#773dc9" stroke="#001122"></path><path d="M338 0L261 0L349 120.4Z" fill="#4e44d3" stroke="#001122"></path><path d="M223 37.7L139 0L136 89.7Z" fill="#773dc9" stroke="#001122"></path><path d="M0 229.4L51 246.1L49 203.4Z" fill="#813bc6" stroke="#001122"></path><path d="M0 229.4L0 232.1L51 246.1Z" fill="#a332b7" stroke="#001122"></path><path d="M37 141.7L0 229.4L49 203.4Z" fill="#773dc9" stroke="#001122"></path><path d="M0 396.9L0 469.3L145 461.6Z" fill="#3946d5" stroke="#001122"></path><path d="M683 304.1L682 218.4L597 350.9Z" fill="#8b38c2" stroke="#001122"></path><path d="M0 469.3L0 477.6L145 461.6Z" fill="#6b3fcc" stroke="#001122"></path><path d="M0 37.7L37 141.7L136 89.7Z" fill="#9436be" stroke="#001122"></path><path d="M136 89.7L37 141.7L140 204.4Z" fill="#1348d8" stroke="#001122"></path><path d="M624 600L691 477.3L595 483.3Z" fill="#4e44d3" stroke="#001122"></path><path d="M595 483.3L709 416.6L596 371.6Z" fill="#a332b7" stroke="#001122"></path><path d="M683 304.1L754 241.1L682 218.4Z" fill="#a332b7" stroke="#001122"></path><path d="M691 477.3L709 416.6L595 483.3Z" fill="#1348d8" stroke="#001122"></path><path d="M480 600L624 600L595 483.3Z" fill="#813bc6" stroke="#001122"></path><path d="M584 37.7L481 136.7L581 121.7Z" fill="#8b38c2" stroke="#001122"></path><path d="M584 37.7L507 0L481 136.7Z" fill="#813bc6" stroke="#001122"></path><path d="M693 151.4L584 37.7L581 121.7Z" fill="#9c34bb" stroke="#001122"></path><path d="M709 416.6L743 343.9L683 304.1Z" fill="#773dc9" stroke="#001122"></path><path d="M763 411.6L743 343.9L709 416.6Z" fill="#8b38c2" stroke="#001122"></path><path d="M261 0L139 0L223 37.7Z" fill="#5e42cf" stroke="#001122"></path><path d="M754 241.1L693 151.4L682 218.4Z" fill="#773dc9" stroke="#001122"></path><path d="M682 218.4L693 151.4L575 135.4Z" fill="#9436be" stroke="#001122"></path><path d="M139 0L100 0L136 89.7Z" fill="#3946d5" stroke="#001122"></path><path d="M0 477.6L0 600L112 554.3Z" fill="#4e44d3" stroke="#001122"></path><path d="M743 343.9L754 241.1L683 304.1Z" fill="#813bc6" stroke="#001122"></path><path d="M762 540.3L763 411.6L691 477.3Z" fill="#3946d5" stroke="#001122"></path><path d="M691 477.3L763 411.6L709 416.6Z" fill="#813bc6" stroke="#001122"></path><path d="M743 343.9L791 285.9L754 241.1Z" fill="#773dc9" stroke="#001122"></path><path d="M763 411.6L791 285.9L743 343.9Z" fill="#6b3fcc" stroke="#001122"></path><path d="M755 75.7L661 0L693 151.4Z" fill="#1348d8" stroke="#001122"></path><path d="M100 0L0 37.7L136 89.7Z" fill="#a332b7" stroke="#001122"></path><path d="M37 141.7L0 37.7L0 229.4Z" fill="#9c34bb" stroke="#001122"></path><path d="M742 600L762 540.3L691 477.3Z" fill="#4e44d3" stroke="#001122"></path><path d="M900 367.9L841 214.1L791 285.9Z" fill="#1348d8" stroke="#001122"></path><path d="M693 151.4L661 0L584 37.7Z" fill="#4e44d3" stroke="#001122"></path><path d="M584 37.7L661 0L507 0Z" fill="#9436be" stroke="#001122"></path><path d="M784 166.4L693 151.4L754 241.1Z" fill="#a332b7" stroke="#001122"></path><path d="M624 600L742 600L691 477.3Z" fill="#4e44d3" stroke="#001122"></path><path d="M841 214.1L784 166.4L754 241.1Z" fill="#9c34bb" stroke="#001122"></path><path d="M784 166.4L757 100.7L693 151.4Z" fill="#1348d8" stroke="#001122"></path><path d="M100 0L0 0L0 37.7Z" fill="#8b38c2" stroke="#001122"></path><path d="M900 97.7L755 75.7L757 100.7Z" fill="#9436be" stroke="#001122"></path><path d="M757 100.7L755 75.7L693 151.4Z" fill="#5e42cf" stroke="#001122"></path><path d="M791 285.9L841 214.1L754 241.1Z" fill="#a332b7" stroke="#001122"></path><path d="M784 166.4L900 97.7L757 100.7Z" fill="#a332b7" stroke="#001122"></path><path d="M900 367.9L791 285.9L763 411.6Z" fill="#3946d5" stroke="#001122"></path><path d="M742 600L794 600L762 540.3Z" fill="#773dc9" stroke="#001122"></path><path d="M900 419.6L900 367.9L763 411.6Z" fill="#773dc9" stroke="#001122"></path><path d="M755 75.7L748 0L661 0Z" fill="#a332b7" stroke="#001122"></path><path d="M749 0L748 0L755 75.7Z" fill="#6b3fcc" stroke="#001122"></path><path d="M900 0L749 0L755 75.7Z" fill="#1348d8" stroke="#001122"></path><path d="M900 419.6L763 411.6L900 530.3Z" fill="#3946d5" stroke="#001122"></path><path d="M900 530.3L763 411.6L762 540.3Z" fill="#1348d8" stroke="#001122"></path><path d="M900 367.9L900 203.1L841 214.1Z" fill="#773dc9" stroke="#001122"></path><path d="M841 214.1L900 174.4L784 166.4Z" fill="#5e42cf" stroke="#001122"></path><path d="M900 203.1L900 174.4L841 214.1Z" fill="#3946d5" stroke="#001122"></path><path d="M794 600L900 530.3L762 540.3Z" fill="#5e42cf" stroke="#001122"></path><path d="M900 174.4L900 97.7L784 166.4Z" fill="#3946d5" stroke="#001122"></path><path d="M794 600L900 600L900 530.3Z" fill="#3946d5" stroke="#001122"></path><path d="M900 97.7L900 0L755 75.7Z" fill="#5e42cf" stroke="#001122"></path></g></svg>